<svg width="16" height="20" viewBox="0 0 16 20" fill="none" xmlns="http://www.w3.org/2000/svg">
<path d="M15.7259 13.9266L14.7692 13.3193V8.04688C14.7692 4.69043 12.0606 1.92551 8.61539 1.62848V0.585938C8.61539 0.262344 8.33986 0 8 0C7.66014 0 7.38462 0.262344 7.38462 0.585938V1.62848C3.93941 1.92551 1.23077 4.69043 1.23077 8.04688V13.3193L0.274051 13.9266C0.10281 14.0352 0 14.2181 0 14.4141V16.7578C0 17.0814 0.275528 17.3438 0.615385 17.3438H4.67179C4.96066 18.8526 6.34261 20 8 20C9.65735 20 11.0393 18.8526 11.3282 17.3438H15.3846C15.7245 17.3438 16 17.0814 16 16.7578V14.4141C16 14.2181 15.8971 14.0352 15.7259 13.9266ZM8 18.8281C7.02404 18.8281 6.19754 18.2008 5.93399 17.3438H10.0661C9.80246 18.2008 8.97596 18.8281 8 18.8281ZM14.7692 16.1719C14.1981 16.1719 1.90302 16.1719 1.23077 16.1719V14.7276L2.18749 14.1203C2.35869 14.0117 2.46154 13.8287 2.46154 13.6328V8.04688C2.46154 5.1391 4.94609 2.77344 8 2.77344C11.0539 2.77344 13.5385 5.1391 13.5385 8.04688V13.6328C13.5385 13.8287 13.6413 14.0117 13.8125 14.1203L14.7692 14.7276V16.1719Z" fill="#CBCBCB"/>
</svg>
