<svg width="20" height="16" viewBox="0 0 20 16" fill="none" xmlns="http://www.w3.org/2000/svg">
<path fill-rule="evenodd" clip-rule="evenodd" d="M17.6573 0.898201C15.0183 -0.733813 11.7596 0.0277933 10.0003 1.89554C8.24095 0.0277933 4.9822 -0.74288 2.34322 0.898201C0.943757 1.76861 0.0640948 3.23742 0.00411789 4.78783C-0.135828 8.30573 3.30285 11.1255 8.55083 15.4503L8.65079 15.5319C9.4105 16.1575 10.5801 16.1575 11.3398 15.5229L11.4497 15.4322C16.6977 11.1164 20.1264 8.29666 19.9964 4.77877C19.9365 3.23742 19.0568 1.76861 17.6573 0.898201ZM10.101 14.0994L10.001 14.1901L9.90108 14.0994C5.14291 10.1916 2.00412 7.60761 2.00412 4.98732C2.00412 3.17397 3.50354 1.81396 5.50277 1.81396C7.04218 1.81396 8.54161 2.71156 9.0714 3.95371H10.9407C11.4605 2.71156 12.9599 1.81396 14.4993 1.81396C16.4985 1.81396 17.998 3.17397 17.998 4.98732C17.998 7.60761 14.8592 10.1916 10.101 14.0994Z" fill="#CBCBCB"/>
</svg>
