<svg width="31" height="24" viewBox="0 0 31 24" fill="none" xmlns="http://www.w3.org/2000/svg">
<rect x="0.5" y="2.5" width="16" height="18" rx="3.5" stroke="#783BFF"/>
<path fill-rule="evenodd" clip-rule="evenodd" d="M12 12.9997H23.17L19.29 16.8797C18.9 17.2697 18.9 17.9097 19.29 18.2997C19.68 18.6897 20.31 18.6897 20.7 18.2997L26.29 12.7097C26.68 12.3197 26.68 11.6897 26.29 11.2997L20.71 5.69973C20.32 5.30973 19.69 5.30973 19.3 5.69973C18.91 6.08973 18.91 6.71973 19.3 7.10973L23.17 10.9997H12C11.45 10.9997 11 11.4497 11 11.9997C11 12.5497 11.45 12.9997 12 12.9997Z" fill="#783BFF"/>
</svg>
