<svg width="178" height="178" viewBox="0 0 178 178" fill="none" xmlns="http://www.w3.org/2000/svg">
<path d="M89 0L100.633 30.5158L123.059 6.77472L122.129 39.4195L151.932 26.0675L138.581 55.8713L171.225 54.9412L147.484 77.3668L178 89L147.484 100.633L171.225 123.059L138.581 122.129L151.932 151.932L122.129 138.581L123.059 171.225L100.633 147.484L89 178L77.3668 147.484L54.9412 171.225L55.8713 138.581L26.0675 151.932L39.4195 122.129L6.77472 123.059L30.5158 100.633L0 89L30.5158 77.3668L6.77472 54.9412L39.4195 55.8713L26.0675 26.0675L55.8713 39.4195L54.9412 6.77472L77.3668 30.5158L89 0Z" fill="#252525"/>
</svg>
