<svg width="188" height="188" viewBox="0 0 188 188" fill="none" xmlns="http://www.w3.org/2000/svg">
<path d="M94 0L106.287 32.2301L129.972 7.15533L128.99 41.634L160.468 27.532L146.366 59.0102L180.845 58.0278L155.77 81.7132L188 94L155.77 106.287L180.845 129.972L146.366 128.99L160.468 160.468L128.99 146.366L129.972 180.845L106.287 155.77L94 188L81.7132 155.77L58.0278 180.845L59.0102 146.366L27.532 160.468L41.634 128.99L7.15533 129.972L32.2301 106.287L0 94L32.2301 81.7132L7.15533 58.0278L41.634 59.0102L27.532 27.532L59.0102 41.634L58.0278 7.15533L81.7132 32.2301L94 0Z" fill="black"/>
</svg>
