<svg width="24" height="24" viewBox="0 0 24 24" fill="none" xmlns="http://www.w3.org/2000/svg">
<path fill-rule="evenodd" clip-rule="evenodd" d="M12 4.91422C13.09 3.63422 14.76 2.82422 16.5 2.82422C19.58 2.82422 22 5.24422 22 8.32422C22 12.1011 18.6056 15.1792 13.4627 19.8427L13.45 19.8542L12 21.1742L10.55 19.8642L10.5105 19.8283C5.38263 15.1685 2 12.0946 2 8.32422C2 5.24422 4.42 2.82422 7.5 2.82422C9.24 2.82422 10.91 3.63422 12 4.91422ZM12 18.4742L12.1 18.3742C16.86 14.0642 20 11.2142 20 8.32422C20 6.32422 18.5 4.82422 16.5 4.82422C14.96 4.82422 13.46 5.81422 12.94 7.18422H11.07C10.54 5.81422 9.04 4.82422 7.5 4.82422C5.5 4.82422 4 6.32422 4 8.32422C4 11.2142 7.14 14.0642 11.9 18.3742L12 18.4742Z" fill="#783BFF"/>
</svg>
