<svg width="18" height="18" viewBox="0 0 18 18" fill="none" xmlns="http://www.w3.org/2000/svg">
<path fill-rule="evenodd" clip-rule="evenodd" d="M11.9649 11.2559H12.7549L17.7449 16.2559L16.2549 17.7459L11.2549 12.7559V11.9659L10.9849 11.6859C9.84488 12.6659 8.36488 13.2559 6.75488 13.2559C3.16488 13.2559 0.254883 10.3459 0.254883 6.75586C0.254883 3.16586 3.16488 0.255859 6.75488 0.255859C10.3449 0.255859 13.2549 3.16586 13.2549 6.75586C13.2549 8.36586 12.6649 9.84586 11.6849 10.9859L11.9649 11.2559ZM2.25488 6.75586C2.25488 9.24586 4.26488 11.2559 6.75488 11.2559C9.24488 11.2559 11.2549 9.24586 11.2549 6.75586C11.2549 4.26586 9.24488 2.25586 6.75488 2.25586C4.26488 2.25586 2.25488 4.26586 2.25488 6.75586Z" fill="#B3B5C5"/>
</svg>
