<svg width="24" height="24" viewBox="0 0 24 24" fill="none" xmlns="http://www.w3.org/2000/svg">
<path fill-rule="evenodd" clip-rule="evenodd" d="M17.21 9.48977H22C22.55 9.48977 23 9.93977 23 10.4898L22.97 10.7598L20.43 20.0298C20.19 20.8698 19.42 21.4898 18.5 21.4898H5.5C4.58 21.4898 3.81 20.8698 3.58 20.0298L1.04 10.7598C1.01 10.6698 1 10.5798 1 10.4898C1 9.93977 1.45 9.48977 2 9.48977H6.79L11.17 2.93977C11.36 2.64977 11.68 2.50977 12 2.50977C12.32 2.50977 12.64 2.64977 12.83 2.92977L17.21 9.48977ZM14.8 9.48977L12 5.28977L9.2 9.48977H14.8ZM18.5 19.4898L5.51 19.4998L3.31 11.4898H20.7L18.5 19.4898ZM10 15.4898C10 14.3898 10.9 13.4898 12 13.4898C13.1 13.4898 14 14.3898 14 15.4898C14 16.5898 13.1 17.4898 12 17.4898C10.9 17.4898 10 16.5898 10 15.4898Z" fill="white" fill-opacity="0.8"/>
</svg>
