<svg width="36" height="36" viewBox="0 0 36 36" fill="none" xmlns="http://www.w3.org/2000/svg">
<circle cx="18" cy="18" r="18" fill="white"/>
<path fill-rule="evenodd" clip-rule="evenodd" d="M18 10C15.79 10 14 11.79 14 14C14 16.21 15.79 18 18 18C20.21 18 22 16.21 22 14C22 11.79 20.21 10 18 10ZM20.1 14C20.1 12.84 19.16 11.9 18 11.9C16.84 11.9 15.9 12.84 15.9 14C15.9 15.16 16.84 16.1 18 16.1C19.16 16.1 20.1 15.16 20.1 14ZM24.1 23C24.1 22.36 20.97 20.9 18 20.9C15.03 20.9 11.9 22.36 11.9 23V24.1H24.1V23ZM10 23C10 20.34 15.33 19 18 19C20.67 19 26 20.34 26 23V26H10V23Z" fill="#252525"/>
</svg>
