<svg width="36" height="36" viewBox="0 0 36 36" fill="none" xmlns="http://www.w3.org/2000/svg">
<circle cx="18" cy="18" r="18" fill="white"/>
<path d="M15.7216 18.9091H17.4261V18.8239C17.4545 17.0625 17.9091 16.2955 19.1591 15.5142C20.4091 14.7543 21.1477 13.6605 21.1477 12.0909C21.1477 9.875 19.5284 8.25568 17.0284 8.25568C14.7273 8.25568 12.902 9.67614 12.7955 12.0909H14.5852C14.6918 10.4148 15.8636 9.73295 17.0284 9.73295C18.3636 9.73295 19.4432 10.6136 19.4432 12.0057C19.4432 13.1349 18.7969 13.9446 17.9659 14.4489C16.5739 15.294 15.7429 16.1179 15.7216 18.8239V18.9091ZM16.6307 23.1136C17.3338 23.1136 17.9091 22.5384 17.9091 21.8352C17.9091 21.1321 17.3338 20.5568 16.6307 20.5568C15.9276 20.5568 15.3523 21.1321 15.3523 21.8352C15.3523 22.5384 15.9276 23.1136 16.6307 23.1136Z" fill="#252525"/>
</svg>
